<mxfile host="Electron" modified="2023-04-22T11:47:47.611Z" agent="Mozilla/5.0 (X11; Linux x86_64) AppleWebKit/537.36 (KHTML, like Gecko) draw.io/21.2.1 Chrome/112.0.5615.87 Electron/24.1.2 Safari/537.36" etag="-D8CCEvDfitEX_N1-lXr" version="21.2.1" type="device">
  <diagram name="Page-1" id="aHGDaPepbON8cf0uI-i8">
    <mxGraphModel dx="1360" dy="843" grid="1" gridSize="10" guides="1" tooltips="1" connect="1" arrows="1" fold="1" page="1" pageScale="1" pageWidth="827" pageHeight="1169" background="#FFFFFF" math="0" shadow="1">
      <root>
        <mxCell id="0" />
        <mxCell id="1" parent="0" />
        <mxCell id="gIobsl6rH0Z72KeZ4NyF-9" value="" style="edgeStyle=orthogonalEdgeStyle;rounded=0;orthogonalLoop=1;jettySize=auto;html=1;" edge="1" parent="1" source="gIobsl6rH0Z72KeZ4NyF-1" target="gIobsl6rH0Z72KeZ4NyF-7">
          <mxGeometry relative="1" as="geometry" />
        </mxCell>
        <mxCell id="gIobsl6rH0Z72KeZ4NyF-1" value="Venues" style="whiteSpace=wrap;html=1;aspect=fixed;" vertex="1" parent="1">
          <mxGeometry x="560" y="70" width="80" height="80" as="geometry" />
        </mxCell>
        <mxCell id="gIobsl6rH0Z72KeZ4NyF-8" value="" style="edgeStyle=orthogonalEdgeStyle;rounded=0;orthogonalLoop=1;jettySize=auto;html=1;" edge="1" parent="1" source="gIobsl6rH0Z72KeZ4NyF-2" target="gIobsl6rH0Z72KeZ4NyF-7">
          <mxGeometry relative="1" as="geometry" />
        </mxCell>
        <mxCell id="gIobsl6rH0Z72KeZ4NyF-2" value="Datasets" style="whiteSpace=wrap;html=1;aspect=fixed;" vertex="1" parent="1">
          <mxGeometry x="280" y="70" width="80" height="80" as="geometry" />
        </mxCell>
        <mxCell id="gIobsl6rH0Z72KeZ4NyF-11" value="" style="edgeStyle=orthogonalEdgeStyle;rounded=0;orthogonalLoop=1;jettySize=auto;html=1;entryX=0.5;entryY=0;entryDx=0;entryDy=0;" edge="1" parent="1" source="gIobsl6rH0Z72KeZ4NyF-7" target="gIobsl6rH0Z72KeZ4NyF-14">
          <mxGeometry relative="1" as="geometry">
            <mxPoint x="475" y="360" as="targetPoint" />
          </mxGeometry>
        </mxCell>
        <mxCell id="gIobsl6rH0Z72KeZ4NyF-7" value="Query&lt;br&gt;OpenAlex" style="ellipse;whiteSpace=wrap;html=1;" vertex="1" parent="1">
          <mxGeometry x="420" y="180" width="80" height="80" as="geometry" />
        </mxCell>
        <mxCell id="gIobsl6rH0Z72KeZ4NyF-16" value="" style="edgeStyle=orthogonalEdgeStyle;rounded=0;orthogonalLoop=1;jettySize=auto;html=1;entryX=0.5;entryY=0;entryDx=0;entryDy=0;" edge="1" parent="1" source="gIobsl6rH0Z72KeZ4NyF-14" target="gIobsl6rH0Z72KeZ4NyF-17">
          <mxGeometry relative="1" as="geometry">
            <mxPoint x="460" y="430" as="targetPoint" />
          </mxGeometry>
        </mxCell>
        <mxCell id="gIobsl6rH0Z72KeZ4NyF-14" value="List of paper from venue referencing at least one dataset" style="rounded=0;whiteSpace=wrap;html=1;" vertex="1" parent="1">
          <mxGeometry x="400" y="310" width="120" height="60" as="geometry" />
        </mxCell>
        <mxCell id="gIobsl6rH0Z72KeZ4NyF-19" value="" style="edgeStyle=orthogonalEdgeStyle;rounded=0;orthogonalLoop=1;jettySize=auto;html=1;entryX=0;entryY=0.5;entryDx=0;entryDy=0;" edge="1" parent="1" source="gIobsl6rH0Z72KeZ4NyF-17" target="gIobsl6rH0Z72KeZ4NyF-21">
          <mxGeometry relative="1" as="geometry">
            <mxPoint x="560" y="480" as="targetPoint" />
          </mxGeometry>
        </mxCell>
        <mxCell id="gIobsl6rH0Z72KeZ4NyF-25" value="" style="edgeStyle=orthogonalEdgeStyle;rounded=0;orthogonalLoop=1;jettySize=auto;html=1;" edge="1" parent="1" source="gIobsl6rH0Z72KeZ4NyF-17" target="gIobsl6rH0Z72KeZ4NyF-24">
          <mxGeometry relative="1" as="geometry" />
        </mxCell>
        <mxCell id="gIobsl6rH0Z72KeZ4NyF-17" value="Is a review paper ?" style="rhombus;whiteSpace=wrap;html=1;" vertex="1" parent="1">
          <mxGeometry x="420" y="440" width="80" height="80" as="geometry" />
        </mxCell>
        <mxCell id="gIobsl6rH0Z72KeZ4NyF-20" value="Yes" style="text;html=1;align=center;verticalAlign=middle;resizable=0;points=[];autosize=1;strokeColor=none;fillColor=none;" vertex="1" parent="1">
          <mxGeometry x="510" y="455" width="40" height="30" as="geometry" />
        </mxCell>
        <mxCell id="gIobsl6rH0Z72KeZ4NyF-21" value="Removed&lt;br&gt;From list" style="whiteSpace=wrap;html=1;fillColor=#f8cecc;strokeColor=#b85450;" vertex="1" parent="1">
          <mxGeometry x="580" y="455" width="90" height="50" as="geometry" />
        </mxCell>
        <mxCell id="gIobsl6rH0Z72KeZ4NyF-27" value="" style="edgeStyle=orthogonalEdgeStyle;rounded=0;orthogonalLoop=1;jettySize=auto;html=1;" edge="1" parent="1" source="gIobsl6rH0Z72KeZ4NyF-24" target="gIobsl6rH0Z72KeZ4NyF-26">
          <mxGeometry relative="1" as="geometry" />
        </mxCell>
        <mxCell id="gIobsl6rH0Z72KeZ4NyF-29" value="" style="edgeStyle=orthogonalEdgeStyle;rounded=0;orthogonalLoop=1;jettySize=auto;html=1;entryX=1;entryY=0.5;entryDx=0;entryDy=0;" edge="1" parent="1" source="gIobsl6rH0Z72KeZ4NyF-24" target="gIobsl6rH0Z72KeZ4NyF-50">
          <mxGeometry relative="1" as="geometry">
            <mxPoint x="330" y="600" as="targetPoint" />
          </mxGeometry>
        </mxCell>
        <mxCell id="gIobsl6rH0Z72KeZ4NyF-24" value="&lt;font style=&quot;font-size: 10px;&quot;&gt;Is dataset name or organ in abstract ?&lt;/font&gt;" style="rhombus;whiteSpace=wrap;html=1;" vertex="1" parent="1">
          <mxGeometry x="405" y="550" width="110" height="100" as="geometry" />
        </mxCell>
        <mxCell id="gIobsl6rH0Z72KeZ4NyF-31" value="" style="edgeStyle=orthogonalEdgeStyle;rounded=0;orthogonalLoop=1;jettySize=auto;html=1;exitX=0;exitY=0.5;exitDx=0;exitDy=0;entryX=1;entryY=0.5;entryDx=0;entryDy=0;" edge="1" parent="1" source="gIobsl6rH0Z72KeZ4NyF-26" target="gIobsl6rH0Z72KeZ4NyF-51">
          <mxGeometry relative="1" as="geometry">
            <mxPoint x="340" y="775" as="sourcePoint" />
            <mxPoint x="330" y="790" as="targetPoint" />
          </mxGeometry>
        </mxCell>
        <mxCell id="gIobsl6rH0Z72KeZ4NyF-39" value="" style="edgeStyle=orthogonalEdgeStyle;rounded=0;orthogonalLoop=1;jettySize=auto;html=1;" edge="1" parent="1" source="gIobsl6rH0Z72KeZ4NyF-26" target="gIobsl6rH0Z72KeZ4NyF-38">
          <mxGeometry relative="1" as="geometry" />
        </mxCell>
        <mxCell id="gIobsl6rH0Z72KeZ4NyF-26" value="Is dataset in Table ?" style="rhombus;whiteSpace=wrap;html=1;" vertex="1" parent="1">
          <mxGeometry x="392.5" y="788" width="135" height="120" as="geometry" />
        </mxCell>
        <mxCell id="gIobsl6rH0Z72KeZ4NyF-32" value="Yes" style="text;html=1;align=center;verticalAlign=middle;resizable=0;points=[];autosize=1;strokeColor=none;fillColor=none;" vertex="1" parent="1">
          <mxGeometry x="350" y="578" width="40" height="30" as="geometry" />
        </mxCell>
        <mxCell id="gIobsl6rH0Z72KeZ4NyF-35" value="No" style="text;html=1;align=center;verticalAlign=middle;resizable=0;points=[];autosize=1;strokeColor=none;fillColor=none;" vertex="1" parent="1">
          <mxGeometry x="460" y="518" width="40" height="30" as="geometry" />
        </mxCell>
        <mxCell id="gIobsl6rH0Z72KeZ4NyF-36" value="No" style="text;html=1;align=center;verticalAlign=middle;resizable=0;points=[];autosize=1;strokeColor=none;fillColor=none;" vertex="1" parent="1">
          <mxGeometry x="460" y="640" width="40" height="30" as="geometry" />
        </mxCell>
        <mxCell id="gIobsl6rH0Z72KeZ4NyF-37" value="Yes" style="text;html=1;align=center;verticalAlign=middle;resizable=0;points=[];autosize=1;strokeColor=none;fillColor=none;" vertex="1" parent="1">
          <mxGeometry x="340" y="818" width="40" height="30" as="geometry" />
        </mxCell>
        <mxCell id="gIobsl6rH0Z72KeZ4NyF-41" value="" style="edgeStyle=orthogonalEdgeStyle;rounded=0;orthogonalLoop=1;jettySize=auto;html=1;entryX=1;entryY=0.5;entryDx=0;entryDy=0;" edge="1" parent="1" source="gIobsl6rH0Z72KeZ4NyF-38" target="gIobsl6rH0Z72KeZ4NyF-52">
          <mxGeometry relative="1" as="geometry">
            <mxPoint x="330" y="990" as="targetPoint" />
          </mxGeometry>
        </mxCell>
        <mxCell id="gIobsl6rH0Z72KeZ4NyF-44" value="" style="edgeStyle=orthogonalEdgeStyle;rounded=0;orthogonalLoop=1;jettySize=auto;html=1;" edge="1" parent="1" source="gIobsl6rH0Z72KeZ4NyF-38" target="gIobsl6rH0Z72KeZ4NyF-43">
          <mxGeometry relative="1" as="geometry" />
        </mxCell>
        <mxCell id="gIobsl6rH0Z72KeZ4NyF-38" value="Is dataset&#39;s organ in figures ?" style="rhombus;whiteSpace=wrap;html=1;" vertex="1" parent="1">
          <mxGeometry x="392.5" y="1010" width="135" height="120" as="geometry" />
        </mxCell>
        <mxCell id="gIobsl6rH0Z72KeZ4NyF-42" value="No" style="text;html=1;align=center;verticalAlign=middle;resizable=0;points=[];autosize=1;strokeColor=none;fillColor=none;" vertex="1" parent="1">
          <mxGeometry x="460" y="940" width="40" height="30" as="geometry" />
        </mxCell>
        <mxCell id="gIobsl6rH0Z72KeZ4NyF-43" value="Removed &lt;br&gt;From list" style="whiteSpace=wrap;html=1;fillColor=#f8cecc;strokeColor=#b85450;" vertex="1" parent="1">
          <mxGeometry x="570" y="1045" width="90" height="50" as="geometry" />
        </mxCell>
        <mxCell id="gIobsl6rH0Z72KeZ4NyF-45" value="Yes" style="text;html=1;align=center;verticalAlign=middle;resizable=0;points=[];autosize=1;strokeColor=none;fillColor=none;" vertex="1" parent="1">
          <mxGeometry x="350" y="960" width="40" height="30" as="geometry" />
        </mxCell>
        <mxCell id="gIobsl6rH0Z72KeZ4NyF-48" value="No" style="text;html=1;align=center;verticalAlign=middle;resizable=0;points=[];autosize=1;strokeColor=none;fillColor=none;" vertex="1" parent="1">
          <mxGeometry x="527.5" y="1040" width="40" height="30" as="geometry" />
        </mxCell>
        <mxCell id="gIobsl6rH0Z72KeZ4NyF-50" value="Keep in list" style="whiteSpace=wrap;html=1;fillColor=#d5e8d4;strokeColor=#82b366;" vertex="1" parent="1">
          <mxGeometry x="190" y="570" width="120" height="60" as="geometry" />
        </mxCell>
        <mxCell id="gIobsl6rH0Z72KeZ4NyF-51" value="Keep in list" style="whiteSpace=wrap;html=1;fillColor=#d5e8d4;strokeColor=#82b366;" vertex="1" parent="1">
          <mxGeometry x="190" y="818" width="120" height="60" as="geometry" />
        </mxCell>
        <mxCell id="gIobsl6rH0Z72KeZ4NyF-52" value="Keep in list" style="whiteSpace=wrap;html=1;fillColor=#d5e8d4;strokeColor=#82b366;" vertex="1" parent="1">
          <mxGeometry x="190" y="1040" width="120" height="60" as="geometry" />
        </mxCell>
        <mxCell id="gIobsl6rH0Z72KeZ4NyF-54" value="" style="strokeWidth=2;html=1;shape=mxgraph.flowchart.annotation_2;align=left;labelPosition=right;pointerEvents=1;direction=west;" vertex="1" parent="1">
          <mxGeometry x="680" y="60" width="50" height="300" as="geometry" />
        </mxCell>
        <mxCell id="gIobsl6rH0Z72KeZ4NyF-55" value="&lt;font style=&quot;font-size: 14px;&quot;&gt;&lt;b&gt;Get informations&lt;/b&gt;&lt;/font&gt;" style="text;html=1;align=center;verticalAlign=middle;resizable=0;points=[];autosize=1;strokeColor=none;fillColor=none;" vertex="1" parent="1">
          <mxGeometry x="730" y="195" width="140" height="30" as="geometry" />
        </mxCell>
        <mxCell id="gIobsl6rH0Z72KeZ4NyF-56" value="" style="strokeWidth=2;html=1;shape=mxgraph.flowchart.annotation_2;align=left;labelPosition=right;pointerEvents=1;direction=west;" vertex="1" parent="1">
          <mxGeometry x="680" y="430" width="50" height="650" as="geometry" />
        </mxCell>
        <mxCell id="gIobsl6rH0Z72KeZ4NyF-57" value="&lt;b&gt;&lt;font style=&quot;font-size: 14px;&quot;&gt;Try to filter &quot;wrong&quot; references&lt;/font&gt;&lt;/b&gt;" style="text;html=1;align=center;verticalAlign=middle;resizable=0;points=[];autosize=1;strokeColor=none;fillColor=none;" vertex="1" parent="1">
          <mxGeometry x="730" y="740" width="230" height="30" as="geometry" />
        </mxCell>
        <mxCell id="gIobsl6rH0Z72KeZ4NyF-58" value="Is fulltext available ?" style="rhombus;whiteSpace=wrap;html=1;" vertex="1" parent="1">
          <mxGeometry x="420" y="670" width="80" height="80" as="geometry" />
        </mxCell>
        <mxCell id="gIobsl6rH0Z72KeZ4NyF-59" value="" style="edgeStyle=orthogonalEdgeStyle;rounded=0;orthogonalLoop=1;jettySize=auto;html=1;entryX=0;entryY=0.5;entryDx=0;entryDy=0;" edge="1" parent="1" target="gIobsl6rH0Z72KeZ4NyF-61">
          <mxGeometry relative="1" as="geometry">
            <mxPoint x="500" y="710" as="sourcePoint" />
            <mxPoint x="560" y="710" as="targetPoint" />
          </mxGeometry>
        </mxCell>
        <mxCell id="gIobsl6rH0Z72KeZ4NyF-60" value="No" style="text;html=1;align=center;verticalAlign=middle;resizable=0;points=[];autosize=1;strokeColor=none;fillColor=none;" vertex="1" parent="1">
          <mxGeometry x="510" y="685" width="40" height="30" as="geometry" />
        </mxCell>
        <mxCell id="gIobsl6rH0Z72KeZ4NyF-61" value="Removed&lt;br&gt;From list" style="whiteSpace=wrap;html=1;fillColor=#f8cecc;strokeColor=#b85450;" vertex="1" parent="1">
          <mxGeometry x="580" y="685" width="90" height="50" as="geometry" />
        </mxCell>
        <mxCell id="gIobsl6rH0Z72KeZ4NyF-62" value="Yes" style="text;html=1;align=center;verticalAlign=middle;resizable=0;points=[];autosize=1;strokeColor=none;fillColor=none;" vertex="1" parent="1">
          <mxGeometry x="460" y="750" width="40" height="30" as="geometry" />
        </mxCell>
      </root>
    </mxGraphModel>
  </diagram>
</mxfile>
